<mxfile host="app.diagrams.net" modified="2021-04-16T12:22:56.076Z" agent="5.0 (Windows NT 10.0; Win64; x64) AppleWebKit/537.36 (KHTML, like Gecko) Chrome/88.0.4324.104 Safari/537.36" etag="nJysqZsU9sbi_VuS77z3" version="14.6.0" type="github">
  <diagram id="h6bib5n-3Fqupwg1RZPY" name="第 1 页">
    <mxGraphModel dx="870" dy="539" grid="1" gridSize="10" guides="1" tooltips="1" connect="1" arrows="1" fold="1" page="1" pageScale="1" pageWidth="827" pageHeight="1169" math="0" shadow="0">
      <root>
        <mxCell id="0" />
        <mxCell id="1" parent="0" />
        <mxCell id="3ruH-57Nr0bxNuPV-yS--10" value="" style="group" vertex="1" connectable="0" parent="1">
          <mxGeometry x="160" y="100" width="225" height="400" as="geometry" />
        </mxCell>
        <mxCell id="3ruH-57Nr0bxNuPV-yS--1" value="" style="rounded=0;whiteSpace=wrap;html=1;fillColor=#d5e8d4;strokeColor=#82b366;" vertex="1" parent="3ruH-57Nr0bxNuPV-yS--10">
          <mxGeometry width="225" height="400" as="geometry" />
        </mxCell>
        <mxCell id="3ruH-57Nr0bxNuPV-yS--6" value="" style="group" vertex="1" connectable="0" parent="3ruH-57Nr0bxNuPV-yS--10">
          <mxGeometry x="42.5" y="20" width="140" height="360" as="geometry" />
        </mxCell>
        <mxCell id="3ruH-57Nr0bxNuPV-yS--2" value="&lt;font style=&quot;font-size: 16px&quot;&gt;边界&lt;/font&gt;" style="ellipse;whiteSpace=wrap;html=1;fillColor=#dae8fc;strokeColor=#6c8ebf;" vertex="1" parent="3ruH-57Nr0bxNuPV-yS--6">
          <mxGeometry x="10" width="120" height="80" as="geometry" />
        </mxCell>
        <mxCell id="3ruH-57Nr0bxNuPV-yS--3" value="&lt;font style=&quot;font-size: 16px&quot;&gt;处理数据&lt;/font&gt;" style="rounded=1;whiteSpace=wrap;html=1;fillColor=#ffe6cc;strokeColor=#d79b00;" vertex="1" parent="3ruH-57Nr0bxNuPV-yS--6">
          <mxGeometry x="10" y="120" width="120" height="60" as="geometry" />
        </mxCell>
        <mxCell id="3ruH-57Nr0bxNuPV-yS--4" value="&lt;span style=&quot;font-size: 16px&quot;&gt;func(xxx, a)&lt;/span&gt;" style="rounded=1;whiteSpace=wrap;html=1;fillColor=#fff2cc;strokeColor=#d6b656;" vertex="1" parent="3ruH-57Nr0bxNuPV-yS--6">
          <mxGeometry x="10" y="210" width="120" height="60" as="geometry" />
        </mxCell>
        <mxCell id="3ruH-57Nr0bxNuPV-yS--5" value="&lt;span style=&quot;font-size: 16px&quot;&gt;return func(xxx, a)&lt;/span&gt;" style="rounded=1;whiteSpace=wrap;html=1;fillColor=#fff2cc;strokeColor=#d6b656;" vertex="1" parent="3ruH-57Nr0bxNuPV-yS--6">
          <mxGeometry y="300" width="140" height="60" as="geometry" />
        </mxCell>
        <mxCell id="3ruH-57Nr0bxNuPV-yS--7" value="&lt;font style=&quot;font-size: 16px&quot;&gt;func&lt;br&gt;递归函数&lt;br&gt;&lt;/font&gt;" style="text;html=1;strokeColor=none;fillColor=none;align=center;verticalAlign=middle;whiteSpace=wrap;rounded=0;" vertex="1" parent="3ruH-57Nr0bxNuPV-yS--10">
          <mxGeometry x="2.5" y="20" width="40" height="20" as="geometry" />
        </mxCell>
        <mxCell id="3ruH-57Nr0bxNuPV-yS--11" value="&lt;font style=&quot;font-size: 16px&quot;&gt;a&lt;/font&gt;" style="text;html=1;strokeColor=none;fillColor=none;align=center;verticalAlign=middle;whiteSpace=wrap;rounded=0;" vertex="1" parent="1">
          <mxGeometry x="100" y="30" width="40" height="20" as="geometry" />
        </mxCell>
        <mxCell id="3ruH-57Nr0bxNuPV-yS--12" value="" style="curved=1;endArrow=classic;html=1;exitX=0.75;exitY=1;exitDx=0;exitDy=0;" edge="1" parent="1" source="3ruH-57Nr0bxNuPV-yS--11">
          <mxGeometry width="50" height="50" relative="1" as="geometry">
            <mxPoint x="130" y="60" as="sourcePoint" />
            <mxPoint x="170" y="90" as="targetPoint" />
            <Array as="points">
              <mxPoint x="150" y="50" />
              <mxPoint x="170" y="60" />
            </Array>
          </mxGeometry>
        </mxCell>
        <mxCell id="3ruH-57Nr0bxNuPV-yS--13" value="&lt;font style=&quot;font-size: 14px&quot;&gt;将参数传递给函数&lt;/font&gt;" style="text;html=1;strokeColor=none;fillColor=none;align=center;verticalAlign=middle;whiteSpace=wrap;rounded=0;" vertex="1" parent="1">
          <mxGeometry x="90" y="70" width="70" height="20" as="geometry" />
        </mxCell>
        <mxCell id="3ruH-57Nr0bxNuPV-yS--19" style="edgeStyle=orthogonalEdgeStyle;rounded=0;orthogonalLoop=1;jettySize=auto;html=1;exitX=0.5;exitY=1;exitDx=0;exitDy=0;entryX=0.5;entryY=0;entryDx=0;entryDy=0;" edge="1" parent="1" source="3ruH-57Nr0bxNuPV-yS--16" target="3ruH-57Nr0bxNuPV-yS--17">
          <mxGeometry relative="1" as="geometry" />
        </mxCell>
        <mxCell id="3ruH-57Nr0bxNuPV-yS--16" value="&lt;font style=&quot;font-size: 16px&quot;&gt;处理数据&lt;/font&gt;" style="rounded=1;whiteSpace=wrap;html=1;fillColor=#ffe6cc;strokeColor=#d79b00;" vertex="1" parent="1">
          <mxGeometry x="510" y="80" width="120" height="60" as="geometry" />
        </mxCell>
        <mxCell id="3ruH-57Nr0bxNuPV-yS--21" style="edgeStyle=orthogonalEdgeStyle;rounded=0;orthogonalLoop=1;jettySize=auto;html=1;entryX=0.5;entryY=0;entryDx=0;entryDy=0;curved=1;" edge="1" parent="1" source="3ruH-57Nr0bxNuPV-yS--17" target="3ruH-57Nr0bxNuPV-yS--18">
          <mxGeometry relative="1" as="geometry" />
        </mxCell>
        <mxCell id="3ruH-57Nr0bxNuPV-yS--17" value="&lt;font style=&quot;font-size: 16px&quot;&gt;func(xxx, a)&lt;/font&gt;" style="rounded=1;whiteSpace=wrap;html=1;fillColor=#fff2cc;strokeColor=#d6b656;" vertex="1" parent="1">
          <mxGeometry x="510" y="200" width="120" height="60" as="geometry" />
        </mxCell>
        <mxCell id="3ruH-57Nr0bxNuPV-yS--22" style="edgeStyle=orthogonalEdgeStyle;curved=1;rounded=0;orthogonalLoop=1;jettySize=auto;html=1;entryX=0.5;entryY=0;entryDx=0;entryDy=0;" edge="1" parent="1" source="3ruH-57Nr0bxNuPV-yS--18" target="3ruH-57Nr0bxNuPV-yS--20">
          <mxGeometry relative="1" as="geometry" />
        </mxCell>
        <mxCell id="3ruH-57Nr0bxNuPV-yS--18" value="&lt;font style=&quot;font-size: 16px&quot;&gt;处理数据&lt;/font&gt;" style="rounded=1;whiteSpace=wrap;html=1;fillColor=#ffe6cc;strokeColor=#d79b00;" vertex="1" parent="1">
          <mxGeometry x="610" y="320" width="120" height="60" as="geometry" />
        </mxCell>
        <mxCell id="3ruH-57Nr0bxNuPV-yS--20" value="&lt;font style=&quot;font-size: 16px&quot;&gt;func(xxx, a)&lt;/font&gt;" style="rounded=1;whiteSpace=wrap;html=1;fillColor=#fff2cc;strokeColor=#d6b656;" vertex="1" parent="1">
          <mxGeometry x="610" y="440" width="120" height="60" as="geometry" />
        </mxCell>
        <mxCell id="3ruH-57Nr0bxNuPV-yS--25" style="edgeStyle=orthogonalEdgeStyle;rounded=0;orthogonalLoop=1;jettySize=auto;html=1;entryX=0.5;entryY=0;entryDx=0;entryDy=0;curved=1;" edge="1" parent="1" source="3ruH-57Nr0bxNuPV-yS--23" target="3ruH-57Nr0bxNuPV-yS--16">
          <mxGeometry relative="1" as="geometry" />
        </mxCell>
        <mxCell id="3ruH-57Nr0bxNuPV-yS--23" value="&lt;font style=&quot;font-size: 16px&quot;&gt;a&lt;/font&gt;" style="text;html=1;strokeColor=none;fillColor=none;align=center;verticalAlign=middle;whiteSpace=wrap;rounded=0;" vertex="1" parent="1">
          <mxGeometry x="490" y="20" width="40" height="20" as="geometry" />
        </mxCell>
        <mxCell id="3ruH-57Nr0bxNuPV-yS--26" value="&lt;font style=&quot;font-size: 14px&quot;&gt;将参数传递给函数&lt;/font&gt;" style="text;html=1;strokeColor=none;fillColor=none;align=center;verticalAlign=middle;whiteSpace=wrap;rounded=0;" vertex="1" parent="1">
          <mxGeometry x="530" y="30" width="70" height="20" as="geometry" />
        </mxCell>
        <mxCell id="3ruH-57Nr0bxNuPV-yS--27" value="&lt;font style=&quot;font-size: 16px&quot;&gt;向下递归&lt;/font&gt;" style="text;html=1;strokeColor=none;fillColor=none;align=center;verticalAlign=middle;whiteSpace=wrap;rounded=0;" vertex="1" parent="1">
          <mxGeometry x="630" y="270" width="100" height="20" as="geometry" />
        </mxCell>
        <mxCell id="3ruH-57Nr0bxNuPV-yS--28" value="&lt;font style=&quot;font-size: 16px&quot;&gt;处理后为：a1&lt;/font&gt;" style="text;html=1;strokeColor=none;fillColor=none;align=center;verticalAlign=middle;whiteSpace=wrap;rounded=0;" vertex="1" parent="1">
          <mxGeometry x="580" y="160" width="100" height="20" as="geometry" />
        </mxCell>
        <mxCell id="3ruH-57Nr0bxNuPV-yS--29" value="&lt;font style=&quot;font-size: 16px&quot;&gt;处理后为：a2&lt;/font&gt;" style="text;html=1;strokeColor=none;fillColor=none;align=center;verticalAlign=middle;whiteSpace=wrap;rounded=0;" vertex="1" parent="1">
          <mxGeometry x="680" y="400" width="100" height="20" as="geometry" />
        </mxCell>
        <mxCell id="3ruH-57Nr0bxNuPV-yS--30" value="" style="endArrow=none;dashed=1;html=1;" edge="1" parent="1">
          <mxGeometry width="50" height="50" relative="1" as="geometry">
            <mxPoint x="410" y="570" as="sourcePoint" />
            <mxPoint x="460" y="520" as="targetPoint" />
          </mxGeometry>
        </mxCell>
      </root>
    </mxGraphModel>
  </diagram>
</mxfile>
